<?xml version="1.0" encoding="utf-8"?>
<!-- Generator: Adobe Illustrator 25.1.0, SVG Export Plug-In . SVG Version: 6.00 Build 0)  -->
<svg version="1.1" id="Layer_1" xmlns="http://www.w3.org/2000/svg" xmlns:xlink="http://www.w3.org/1999/xlink" x="0px" y="0px"
	 viewBox="0 0 512 186.1" style="enable-background:new 0 0 512 186.1;" xml:space="preserve">
<style type="text/css">
	.st0{fill:#F69320;}
	.st1{fill:url(#SVGID_1_);stroke:#971B1E;stroke-miterlimit:10;}
	.st2{fill:url(#SVGID_2_);stroke:#971B1E;stroke-miterlimit:10;}
	.st3{fill:url(#SVGID_3_);stroke:#971B1E;stroke-miterlimit:10;}
	.st4{fill:url(#SVGID_4_);stroke:#971B1E;stroke-miterlimit:10;}
	.st5{fill:#FFFFFF;}
</style>
<g id="Bg">
	<rect class="st0" width="512" height="186.1"/>
</g>
<g id="RDX">
	
		<linearGradient id="SVGID_1_" gradientUnits="userSpaceOnUse" x1="20.79" y1="148.5251" x2="318.03" y2="148.5251" gradientTransform="matrix(1 0 0 -1 0 242)">
		<stop  offset="0.26" style="stop-color:#EF4137"/>
		<stop  offset="1" style="stop-color:#FEE6DB"/>
	</linearGradient>
	<path class="st1" d="M126,78.6C88.5,49.6,5.2,76.8,5.2,76.8s24.6-31.3,146.2-40.3c-34.7-18-102.6,3.3-102.6,3.3
		S103.1-0.8,214.1,6.1h-0.7c22.6,0.8,45.9,7.6,63.1,24.9s25.9,45.1,25.9,62.4c0,48.7-39.5,88.2-88.3,88.2
		c-23.4,0-45.8-9.3-62.4-25.8c-17.2-17.2-65.3-77.1-112.7-58.3C39.1,97.6,79.6,64.7,126,78.6z"/>
	
		<linearGradient id="SVGID_2_" gradientUnits="userSpaceOnUse" x1="-73.02" y1="1203.025" x2="-3.5" y2="1203.025" gradientTransform="matrix(6.123234e-17 1 1 -6.123234e-17 -969.77 94.62)">
		<stop  offset="0" style="stop-color:#F69320"/>
		<stop  offset="1" style="stop-color:#F06724"/>
	</linearGradient>
	<polygon class="st2" points="213.2,91.1 293.5,91.1 253.3,21.6 173.1,21.6 	"/>
	
		<linearGradient id="SVGID_3_" gradientUnits="userSpaceOnUse" x1="0.44" y1="1203.025" x2="69.96" y2="1203.025" gradientTransform="matrix(6.123234e-17 1 1 -6.123234e-17 -969.77 94.62)">
		<stop  offset="0" style="stop-color:#F06724"/>
		<stop  offset="1" style="stop-color:#EB2127"/>
	</linearGradient>
	<polygon class="st3" points="253.3,164.6 293.5,95.1 213.2,95.1 173.1,164.6 	"/>
	
		<linearGradient id="SVGID_4_" gradientUnits="userSpaceOnUse" x1="-71.05" y1="1138.885" x2="67.99" y2="1138.885" gradientTransform="matrix(6.123234e-17 1 1 -6.123234e-17 -969.77 94.62)">
		<stop  offset="0" style="stop-color:#F69320"/>
		<stop  offset="1" style="stop-color:#EB2127"/>
	</linearGradient>
	<polygon class="st4" points="209.2,93.1 169.1,23.6 129,93.1 169.1,162.6 	"/>
	<path class="st5" d="M227.9,130.8l-4.9-23.4h12.3l1.4,9.1c0.4,2.2,0.6,4.7,0.9,7.8h0.3c2.3-3.1,4.3-5.5,6.1-7.8l7.7-9.1h11.8
		l-22.1,24l5.4,24.4h-12.3l-1.7-9.9c-0.4-2.5-0.7-5-1-8h-0.3c-2.3,3-4.4,5.5-6.5,8l-8.6,9.9h-11.8L227.9,130.8z"/>
	<path class="st5" d="M172.9,57l6.7,11.7c7.1,12.2,7.4,26.8-2.4,41.5s-19.1,13.5-25.9,1.8l-7.1-12.2L172.9,57z M155.9,103.1
		c3.8,6.6,8.8,7.5,15.6-2.7s6.4-17.8,2.6-24.3l-0.9-1.6L155,101.5L155.9,103.1z"/>
</g>
</svg>
