<?xml version="1.0" encoding="utf-8"?>
<!-- Generator: Adobe Illustrator 25.1.0, SVG Export Plug-In . SVG Version: 6.00 Build 0)  -->
<svg version="1.1" id="Layer_1" xmlns="http://www.w3.org/2000/svg" xmlns:xlink="http://www.w3.org/1999/xlink" x="0px" y="0px"
	 viewBox="0 0 512 200" style="enable-background:new 0 0 512 200;" xml:space="preserve">
<style type="text/css">
	.st0{fill:#F69320;}
	.st1{fill:url(#SVGID_1_);stroke:#971B1E;stroke-miterlimit:10;}
	.st2{fill:url(#SVGID_2_);stroke:#971B1E;stroke-miterlimit:10;}
	.st3{fill:url(#SVGID_3_);stroke:#971B1E;stroke-miterlimit:10;}
	.st4{fill:url(#SVGID_4_);stroke:#971B1E;stroke-miterlimit:10;}
	.st5{fill:#FFFFFF;}
</style>
<g id="Bg">
	<rect class="st0" width="512" height="200"/>
</g>
<g id="RDX">
	
		<linearGradient id="SVGID_1_" gradientUnits="userSpaceOnUse" x1="101.79" y1="938.4053" x2="398.99" y2="938.4053" gradientTransform="matrix(1 0 0 1 0 -838)">
		<stop  offset="0.26" style="stop-color:#EF4137"/>
		<stop  offset="1" style="stop-color:#FEE6DB"/>
	</linearGradient>
	<path class="st1" d="M207,85.5c-37.5-29-120.8-1.8-120.8-1.8s24.6-31.3,146.2-40.3c-34.7-18-102.6,3.3-102.6,3.3
		S184.1,6.1,295.1,13h-0.7c22.6,0.8,45.9,7.6,63.1,24.9s25.9,45.1,25.9,62.4c0,48.7-39.5,88.2-88.3,88.2c-23.4,0-45.8-9.3-62.4-25.8
		c-17.2-17.2-65.3-77.1-112.7-58.3C120.1,104.5,160.6,71.6,207,85.5z"/>
	
		<linearGradient id="SVGID_2_" gradientUnits="userSpaceOnUse" x1="-330.02" y1="-1346.12" x2="-260.52" y2="-1346.12" gradientTransform="matrix(6.123234e-17 1 -1 6.123234e-17 -1031.8201 358.57)">
		<stop  offset="0" style="stop-color:#F69320"/>
		<stop  offset="1" style="stop-color:#F06724"/>
	</linearGradient>
	<polygon class="st2" points="294.2,98 374.5,98 334.3,28.5 254.1,28.5 	"/>
	
		<linearGradient id="SVGID_3_" gradientUnits="userSpaceOnUse" x1="-256.52" y1="-1346.12" x2="-187.02" y2="-1346.12" gradientTransform="matrix(6.123234e-17 1 -1 6.123234e-17 -1031.8201 358.57)">
		<stop  offset="0" style="stop-color:#F06724"/>
		<stop  offset="1" style="stop-color:#EB2127"/>
	</linearGradient>
	<polygon class="st3" points="334.3,171.6 374.5,102 294.2,102 254.1,171.6 	"/>
	
		<linearGradient id="SVGID_4_" gradientUnits="userSpaceOnUse" x1="-328.02" y1="-1281.92" x2="-189.02" y2="-1281.92" gradientTransform="matrix(6.123234e-17 1 -1 6.123234e-17 -1031.8201 358.57)">
		<stop  offset="0" style="stop-color:#F69320"/>
		<stop  offset="1" style="stop-color:#EB2127"/>
	</linearGradient>
	<polygon class="st4" points="290.2,100 250.1,30.5 210,100 250.1,169.6 	"/>
	<path class="st5" d="M308.9,137.8l-4.9-23.4h12.3l1.4,9.1c0.4,2.2,0.6,4.7,0.9,7.8h0.3c2.3-3.1,4.3-5.5,6.1-7.8l7.7-9.1h11.8
		l-22.1,24l5.4,24.4h-12.3l-1.7-9.9c-0.4-2.5-0.7-5-1-8h-0.3c-2.3,3-4.4,5.5-6.5,8l-8.6,9.9h-11.8L308.9,137.8z"/>
	<path class="st5" d="M253.9,63.9l6.7,11.7c7.1,12.2,7.4,26.8-2.4,41.5c-9.8,14.7-19.1,13.5-25.9,1.8l-7.1-12.2L253.9,63.9z
		 M236.9,110c3.8,6.6,8.8,7.5,15.6-2.7c6.8-10.2,6.4-17.8,2.6-24.3l-0.9-1.6l-18.2,27L236.9,110z"/>
</g>
</svg>
